<?xml version="1.0" encoding="iso-8859-1"?>
<!-- Uploaded to: SVG Repo, www.svgrepo.com, Generator: SVG Repo Mixer Tools -->
<svg version="1.1" id="Layer_1" xmlns="http://www.w3.org/2000/svg" xmlns:xlink="http://www.w3.org/1999/xlink" 
	 viewBox="0 0 512 512" xml:space="preserve">
<circle style="fill:#FF7F4F;" cx="256" cy="256" r="256"/>
<path style="fill:#E54F20;" d="M512,256c0-7.028-0.295-13.988-0.852-20.875L380.702,104.679L130.832,406.9l104.265,104.246
	C241.993,511.703,248.961,512,256,512C397.384,512,512,397.384,512,256z"/>
<path style="fill:#366695;" d="M373.369,410.117H138.631c-6.11,0-11.062-4.953-11.062-11.062v-286.11
	c0-6.11,4.953-11.062,11.062-11.062h234.737c6.11,0,11.062,4.953,11.062,11.062v286.11
	C384.431,405.164,379.478,410.117,373.369,410.117z"/>
<path style="fill:#273B7A;" d="M373.369,101.883H256v308.234h117.369c6.11,0,11.062-4.953,11.062-11.062v-286.11
	C384.431,106.836,379.478,101.883,373.369,101.883z"/>
<rect x="166.098" y="140.412" style="fill:#71E2EF;" width="179.803" height="231.176"/>
<rect x="256" y="140.412" style="fill:#38C6D9;" width="89.902" height="231.176"/>
<g>
	<path style="fill:#FFFFFF;" d="M215.273,265.697c-1.764,0-3.531-0.674-4.875-2.02c-2.694-2.693-2.694-7.059,0-9.75l71.111-71.111
		c2.691-2.694,7.061-2.694,9.75,0c2.694,2.693,2.694,7.059,0,9.75l-71.111,71.111C218.803,265.023,217.036,265.697,215.273,265.697z
		"/>
	<path style="fill:#FFFFFF;" d="M250.613,271.946c-1.764,0-3.531-0.674-4.875-2.02c-2.694-2.693-2.694-7.059,0-9.75l43.098-43.098
		c2.691-2.694,7.061-2.694,9.75,0c2.694,2.693,2.694,7.059,0,9.75l-43.098,43.098C254.143,271.272,252.376,271.946,250.613,271.946z
		"/>
	<path style="fill:#FFFFFF;" d="M207.946,231.434c-1.764,0-3.531-0.674-4.875-2.02c-2.694-2.693-2.694-7.059,0-9.75l43.098-43.098
		c2.691-2.694,7.061-2.694,9.75,0c2.694,2.693,2.694,7.059,0,9.75l-43.098,43.098C211.477,230.76,209.71,231.434,207.946,231.434z"
		/>
</g>
</svg>